<svg width="35" height="38" viewBox="0 0 35 38" fill="none" xmlns="http://www.w3.org/2000/svg">
<path d="M22.8264 18.8964C22.8264 14.8956 19.4198 11.6222 15.2178 11.6222H1.53955C0.692223 11.6222 0.0178223 12.2669 0.0178223 13.077C0.0178223 13.8871 0.692223 14.5318 1.53955 14.5318H15.2178C17.7252 14.5318 19.783 16.4826 19.783 18.8964C19.783 21.3101 17.7425 23.2609 15.2178 23.2609C14.3705 23.2609 13.6961 23.9056 13.6961 24.7157C13.6961 25.5258 14.3705 26.1706 15.2178 26.1706C19.4198 26.154 22.8264 22.8972 22.8264 18.8964Z" fill="#FF2D76"/>
<path d="M16.7395 18.8964C16.7395 18.0863 16.0651 17.4416 15.2178 17.4416H1.53954C0.692222 17.4416 0.0178223 18.0863 0.0178223 18.8964C0.0178223 19.7065 0.692222 20.3512 1.53954 20.3512H15.2178C16.0651 20.3512 16.7395 19.6899 16.7395 18.8964Z" fill="#FF2D76"/>
<path d="M10.652 24.7157C10.652 23.9056 9.97765 23.2609 9.13033 23.2609H1.52172C0.674399 23.2609 0 23.9056 0 24.7157C0 25.5258 0.674399 26.1705 1.52172 26.1705H9.13033C9.97765 26.154 10.652 25.5092 10.652 24.7157Z" fill="#FF2D76"/>
<path d="M7.62645 7.2742C7.62645 6.46412 6.95205 5.81937 6.10473 5.81937H1.53955C0.692224 5.81937 0.0178223 6.46412 0.0178223 7.2742C0.0178223 8.08429 0.692224 8.72904 1.53955 8.72904H6.10473C6.93476 8.71251 7.62645 8.06775 7.62645 7.2742Z" fill="#FF2D76"/>
<path d="M10.652 36.3379C10.652 35.5278 9.97765 34.8831 9.13033 34.8831H1.52172C0.674399 34.8831 0 35.5278 0 36.3379C0 37.148 0.674399 37.7928 1.52172 37.7928H9.13033C9.97765 37.7928 10.652 37.1315 10.652 36.3379Z" fill="#FF2D76"/>
<path d="M21.1836 29.1298C20.8724 28.3859 19.9905 28.0222 19.2123 28.3197C17.95 28.8157 16.6012 29.0637 15.2178 29.0637H1.53955C0.692223 29.0637 0.0178223 29.7084 0.0178223 30.5185C0.0178223 31.3286 0.692223 31.9734 1.53955 31.9734H15.2178C16.9989 31.9734 18.7108 31.6592 20.3363 31.031C21.1317 30.7169 21.4949 29.8738 21.1836 29.1298Z" fill="#FF2D76"/>
<path d="M28.8958 18.8964C28.8958 11.6883 22.757 5.81937 15.2175 5.81937H12.1741C11.3267 5.81937 10.6523 6.46412 10.6523 7.27421C10.6523 8.08429 11.3267 8.72905 12.1741 8.72905H15.2175C21.0796 8.72905 25.8523 13.292 25.8523 18.8964C25.8523 21.244 25.0396 23.4428 23.5178 25.2613C22.9991 25.8895 23.1028 26.7988 23.7426 27.3113C24.3997 27.8073 25.3508 27.7081 25.8869 27.0964C27.8409 24.7653 28.8958 21.8557 28.8958 18.8964Z" fill="#FF2D76"/>
<path d="M30.5558 12.4984C31.4723 14.5153 31.9565 16.6811 31.9565 18.8964C31.9565 27.7081 24.4517 34.8831 15.2349 34.8831C14.3875 34.8831 13.7131 35.5278 13.7131 36.3379C13.7131 37.148 14.3875 37.7928 15.2349 37.7928C26.129 37.7928 35 29.3117 35 18.8964C35 16.2678 34.4466 13.7218 33.3572 11.3246C33.0286 10.5807 32.1294 10.25 31.3513 10.5807C30.5558 10.9113 30.21 11.7544 30.5558 12.4984Z" fill="#FF2D76"/>
<path d="M28.5151 6.86089C29.0684 6.26573 29.0165 5.33992 28.394 4.81089C24.7626 1.70282 20.0937 0 15.2173 0H1.53906C0.691734 0 0.017334 0.644758 0.017334 1.45484C0.017334 2.26492 0.691734 2.90968 1.53906 2.90968H15.2173C19.3328 2.90968 23.2928 4.34799 26.3708 6.97662C26.9933 7.50565 27.9617 7.45605 28.5151 6.86089Z" fill="#FF2D76"/>
</svg>
