<svg width="22" height="22" viewBox="0 0 22 22" fill="none" xmlns="http://www.w3.org/2000/svg">
<path d="M2.88149 15.3655C3.30047 15.1773 3.48748 14.685 3.2992 14.266C2.81649 13.1918 2.56341 12.022 2.56341 10.8153C2.56341 6.15605 6.34071 2.37875 11 2.37875C15.6593 2.37875 19.4366 6.15605 19.4366 10.8153C19.4366 15.4746 15.6593 19.2519 11 19.2519C9.01886 19.2519 7.14509 18.5677 5.64514 17.3354C5.29022 17.0438 4.76612 17.0952 4.47453 17.4501C4.18293 17.805 4.23427 18.3291 4.58919 18.6207C6.38397 20.0952 8.63003 20.9153 11 20.9153C16.578 20.9153 21.1 16.3933 21.1 10.8153C21.1 5.23737 16.578 0.715338 11 0.715338C5.42204 0.715338 0.9 5.23737 0.9 10.8153C0.9 12.2579 1.20324 13.66 1.78195 14.9478C1.97023 15.3668 2.46251 15.5538 2.88149 15.3655Z" fill="#FFF" stroke="#FFF" stroke-width="0.2"/>
</svg>
